<?xml version="1.0" standalone="no"?>
<svg xmlns:xlink="http://www.w3.org/1999/xlink" id="wave" style="transform:rotate(0deg); transition: 0.3s" viewBox="0 0 1440 110" version="1.1" xmlns="http://www.w3.org/2000/svg"><defs><linearGradient id="sw-gradient-0" x1="0" x2="0" y1="1" y2="0"><stop stop-color="#f65140" offset="0%"/><stop stop-color="#f65140" offset="100%"/></linearGradient></defs><path style="transform:translate(0, 0px); opacity:1" fill="url(#sw-gradient-0)" d="M0,99L10,84.3C20,70,40,40,60,29.3C80,18,100,26,120,40.3C140,55,160,77,180,77C200,77,220,55,240,47.7C260,40,280,48,300,49.5C320,51,340,48,360,47.7C380,48,400,51,420,49.5C440,48,460,40,480,47.7C500,55,520,77,540,78.8C560,81,580,62,600,58.7C620,55,640,66,660,64.2C680,62,700,48,720,47.7C740,48,760,62,780,67.8C800,73,820,70,840,60.5C860,51,880,37,900,25.7C920,15,940,7,960,18.3C980,29,1000,59,1020,66C1040,73,1060,59,1080,49.5C1100,40,1120,37,1140,31.2C1160,26,1180,18,1200,27.5C1220,37,1240,62,1260,66C1280,70,1300,51,1320,40.3C1340,29,1360,26,1380,25.7C1400,26,1420,29,1430,31.2L1440,33L1440,110L1430,110C1420,110,1400,110,1380,110C1360,110,1340,110,1320,110C1300,110,1280,110,1260,110C1240,110,1220,110,1200,110C1180,110,1160,110,1140,110C1120,110,1100,110,1080,110C1060,110,1040,110,1020,110C1000,110,980,110,960,110C940,110,920,110,900,110C880,110,860,110,840,110C820,110,800,110,780,110C760,110,740,110,720,110C700,110,680,110,660,110C640,110,620,110,600,110C580,110,560,110,540,110C520,110,500,110,480,110C460,110,440,110,420,110C400,110,380,110,360,110C340,110,320,110,300,110C280,110,260,110,240,110C220,110,200,110,180,110C160,110,140,110,120,110C100,110,80,110,60,110C40,110,20,110,10,110L0,110Z"/></svg>